<?xml version="1.0" standalone="no"?><!DOCTYPE svg PUBLIC "-//W3C//DTD SVG 1.1//EN" "http://www.w3.org/Graphics/SVG/1.1/DTD/svg11.dtd"><svg t="1557646829632" class="icon" style="" viewBox="0 0 1024 1024" version="1.1" xmlns="http://www.w3.org/2000/svg" p-id="22576" xmlns:xlink="http://www.w3.org/1999/xlink" width="200" height="200"><defs><style type="text/css"></style></defs><path d="M485.5 281.7m-217.5 0a217.5 217.5 0 1 0 435 0 217.5 217.5 0 1 0-435 0Z" p-id="22577"></path><path d="M880 777.3c-7.8-11.7-7.8-26.9 0-38.5l17.5-26.3c13.7-20.6 2.2-48.5-22.1-53.3l-30.9-6.2c-13.8-2.8-24.5-13.5-27.3-27.3l-6.2-30.9c-4.9-24.2-32.8-35.8-53.3-22.1l-26.3 17.5c-11.7 7.8-26.9 7.8-38.5 0l-26.3-17.5c-20.6-13.7-48.5-2.2-53.3 22.1l-6.2 30.9c-2.8 13.8-13.5 24.5-27.3 27.3l-30.9 6.2c-24.2 4.9-35.8 32.8-22.1 53.3l17.5 26.3c7.8 11.7 7.8 26.9 0 38.5l-17.5 26.3c-13.7 20.6-2.2 48.5 22.1 53.3l30.9 6.2c13.8 2.8 24.5 13.5 27.3 27.3l6.2 30.9c4.9 24.2 32.8 35.8 53.3 22.1l26.3-17.5c11.7-7.8 26.9-7.8 38.5 0l26.3 17.5c20.6 13.7 48.5 2.2 53.3-22.1l6.2-30.9c2.8-13.8 13.5-24.5 27.3-27.3l30.9-6.2c24.2-4.9 35.8-32.8 22.1-53.3L880 777.3z m-167.9 79.5c-54.6 0-98.8-44.2-98.8-98.8 0-54.6 44.2-98.8 98.8-98.8s98.8 44.2 98.8 98.8c0 54.5-44.2 98.8-98.8 98.8z" p-id="22578"></path><path d="M598.9 945l-7.1-35.4c-3.2-15.8-15.5-28.1-31.2-31.2l-35.4-7.1c-27.8-5.6-41-37.5-25.3-61.1l20-30.1c8.9-13.4 8.9-30.8 0-44.1l-20-30.1c-15.7-23.6-2.5-55.5 25.3-61.1l35.4-7.1c15.8-3.2 28.1-15.5 31.2-31.2l7.1-35.4c2.6-12.9 10.9-22.7 21.5-27.9-16.6-2.7-33.7-4.1-51-4.1h-158C235.5 539 91.7 682.8 91.7 858.6c0 49.8 40.7 90.6 90.6 90.6H600c-0.4-1.4-0.8-2.8-1.1-4.2z" p-id="22579"></path></svg>