<?xml version="1.0" standalone="no"?><!DOCTYPE svg PUBLIC "-//W3C//DTD SVG 1.1//EN" "http://www.w3.org/Graphics/SVG/1.1/DTD/svg11.dtd"><svg t="1557721432756" class="icon" style="" viewBox="0 0 1267 1024" version="1.1" xmlns="http://www.w3.org/2000/svg" p-id="28761" xmlns:xlink="http://www.w3.org/1999/xlink" width="247.4609375" height="200"><defs><style type="text/css"></style></defs><path d="M248.685714 121.904762h867.961905V0h-877.714286C165.790476 0 121.904762 48.761905 121.904762 117.028571v707.047619H0v180.419048h585.142857v-180.419048H243.809524V121.904762z" fill="#99B4D6" p-id="28762"></path><path d="M923.989333 701.586286c-63.390476 4.87619-117.028571-43.885714-117.028571-107.276191 0-63.390476 53.638095-112.152381 117.028571-112.152381s117.028571 48.761905 117.028572 112.152381c-4.87619 63.390476-53.638095 107.27619-117.028572 107.276191zM1172.675048 618.691048v-24.380953-29.257143l68.266666-53.638095c4.87619-4.87619 9.752381-14.628571 4.876191-19.504762L1172.675048 374.881524c-4.87619-4.87619-14.628571-9.752381-19.504762-4.876191l-82.895238 34.133334c-14.628571-14.628571-34.133333-24.380952-53.638096-34.133334L1006.884571 282.233905c0-9.752381-9.752381-19.504762-14.628571-19.504762H855.722667c-9.752381 0-14.628571 14.628571-14.628572 19.504762l-14.628571 87.771428c-19.504762 9.752381-34.133333 19.504762-53.638095 34.133334l-82.895239-34.133334c-4.87619-4.87619-14.628571 0-19.504761 4.876191L607.036952 487.033905c-4.87619 4.87619 0 14.628571 4.876191 19.504762l68.266667 53.638095v58.514286L607.036952 677.205333c-4.87619 4.87619-4.87619 14.628571 0 24.380953l63.390477 112.152381c4.87619 4.87619 14.628571 9.752381 19.504761 4.87619l82.895239-34.133333c19.504762 14.628571 34.133333 24.380952 53.638095 29.257143l14.628571 87.771428c0 9.752381 9.752381 4.87619 14.628572 4.876191h131.657143c9.752381 0 14.628571 0 14.628571-4.876191l14.628571-87.771428c19.504762-9.752381 39.009524-19.504762 53.638096-29.257143l82.895238 34.133333c9.752381 4.87619 14.628571 0 19.504762-4.87619l63.390476-112.152381c4.87619-4.87619 0-14.628571-4.876191-19.504762L1172.675048 618.691048z" fill="#99B4D6" p-id="28763"></path></svg>