<?xml version="1.0" standalone="no"?><!DOCTYPE svg PUBLIC "-//W3C//DTD SVG 1.1//EN" "http://www.w3.org/Graphics/SVG/1.1/DTD/svg11.dtd"><svg t="1557646439051" class="icon" style="" viewBox="0 0 1024 1024" version="1.1" xmlns="http://www.w3.org/2000/svg" p-id="20586" xmlns:xlink="http://www.w3.org/1999/xlink" width="200" height="200"><defs><style type="text/css"></style></defs><path d="M402.4781 129.6876h547.728384v109.546496H402.47808000000003V129.687552zM402.4781 458.324h547.728384v109.546496H402.47808000000003V458.323968zM402.4781 786.9624h547.728384v109.544448H402.47808000000003V786.9624319999999zM73.8417 184.4593c0 60.4969 49.0486 109.5465 109.5455 109.5465s109.5465-49.0486 109.5465-109.5465c0-60.4959-49.0496-109.5455-109.5465-109.5455S73.8417 123.9634 73.8417 184.4593zM73.8417 513.0977c0 60.4969 49.0486 109.5455 109.5455 109.5455s109.5465-49.0476 109.5465-109.5455c0-60.4959-49.0496-109.5455-109.5465-109.5455S73.8417 452.6008 73.8417 513.0977zM73.8417 841.7341c0 60.4959 49.0486 109.5465 109.5455 109.5465s109.5465-49.0496 109.5465-109.5465-49.0496-109.5465-109.5465-109.5465S73.8417 781.2383 73.8417 841.7341z" p-id="20587"></path></svg>