<?xml version="1.0" standalone="no"?><!DOCTYPE svg PUBLIC "-//W3C//DTD SVG 1.1//EN" "http://www.w3.org/Graphics/SVG/1.1/DTD/svg11.dtd"><svg t="1557569227094" class="icon" style="" viewBox="0 0 1024 1024" version="1.1" xmlns="http://www.w3.org/2000/svg" p-id="10351" xmlns:xlink="http://www.w3.org/1999/xlink" width="200" height="200"><defs><style type="text/css"></style></defs><path d="M938.333 832H813.531v128h-62.4V832H626.327v-64H751.13V640h62.401v128h124.802v64zM501.527 576c-137.853 0-249.604-114.615-249.604-256S363.674 64 501.527 64C639.379 64 751.13 178.615 751.13 320S639.38 576 501.527 576z m0-448c-103.39 0-187.203 85.961-187.203 192s83.813 192 187.203 192c103.389 0 187.202-85.961 187.202-192s-83.813-192-187.202-192z m124.801 531.84v66.88c-40.012-14.896-82.235-22.583-124.801-22.72-162.805 0-299.9 107.2-351.505 256H85c53.977-184.576 218.965-320 416.527-320 43.618 0 85.24 7.616 124.801 19.84z" p-id="10352" fill="#1296db"></path></svg>