<?xml version="1.0" standalone="no"?><!DOCTYPE svg PUBLIC "-//W3C//DTD SVG 1.1//EN" "http://www.w3.org/Graphics/SVG/1.1/DTD/svg11.dtd"><svg t="1557569500458" class="icon" style="" viewBox="0 0 1024 1024" version="1.1" xmlns="http://www.w3.org/2000/svg" p-id="13169" xmlns:xlink="http://www.w3.org/1999/xlink" width="200" height="200"><defs><style type="text/css"></style></defs><path d="M156.358147 853.060368l307.022402-306.958426 45.231265 45.231265 90.462528 90.462529 226.156323-226.220299 45.29524 45.231265-271.451563 271.451562-45.231264-45.231264L463.380549 636.564471l-273.178924 273.114948a95.964493 95.964493 0 1 1-33.907454-56.619051zM703.739616 319.881644h319.881644v319.881644l-319.881644-319.881644zM0 255.905315h63.976329v255.905315H0V255.905315z m127.952658-255.905315h63.976328v511.81063H127.952658V0z m127.952657 127.952658h63.976329v383.857972H255.905315V127.952658z m127.952658-63.976329h63.976328v447.834301H383.857973V63.976329z m127.952657 127.952657h63.976329v319.881644H511.81063V191.928986z" fill="#d4237a" p-id="13170"></path></svg>