<?xml version="1.0" standalone="no"?><!DOCTYPE svg PUBLIC "-//W3C//DTD SVG 1.1//EN" "http://www.w3.org/Graphics/SVG/1.1/DTD/svg11.dtd"><svg t="1557415875484" class="icon" style="" viewBox="0 0 1024 1024" version="1.1" xmlns="http://www.w3.org/2000/svg" p-id="5638" xmlns:xlink="http://www.w3.org/1999/xlink" width="200" height="200"><defs><style type="text/css"></style></defs><path d="M928 192h-64a32 32 0 0 1-32-32v-64a32 32 0 0 1 32-32h64a32 32 0 0 1 32 32v64a32 32 0 0 1-32 32z m32 224a32 32 0 0 1-32 32H832v352a32 32 0 0 1-32 32H448v96a32 32 0 0 1-64 0v-128a32 32 0 0 1 32-32H768V416a32 32 0 0 1 32-32h128a32 32 0 0 1 32 32zM576 640H512a64 64 0 0 1-64-64V512a64 64 0 0 1 64-64h64a64 64 0 0 1 64 64v64a64 64 0 0 1-64 64z m0-384H512a64 64 0 0 1-64-64V128a64 64 0 0 1 64-64h64a64 64 0 0 1 64 64v64a64 64 0 0 1-64 64zM256 320H128a64 64 0 0 1-64-64V128a64 64 0 0 1 64-64h128a64 64 0 0 1 64 64v128a64 64 0 0 1-64 64zM128 448h64a64 64 0 0 1 64 64v64a64 64 0 0 1-64 64H128a64 64 0 0 1-64-64V512a64 64 0 0 1 64-64z m-32 384h64a32 32 0 0 1 32 32v64a32 32 0 0 1-32 32h-64a32 32 0 0 1-32-32v-64a32 32 0 0 1 32-32z" p-id="5639"></path></svg>