<?xml version="1.0" standalone="no"?><!DOCTYPE svg PUBLIC "-//W3C//DTD SVG 1.1//EN" "http://www.w3.org/Graphics/SVG/1.1/DTD/svg11.dtd"><svg t="1557575919298" class="icon" style="" viewBox="0 0 1024 1024" version="1.1" xmlns="http://www.w3.org/2000/svg" p-id="20461" xmlns:xlink="http://www.w3.org/1999/xlink" width="200" height="200"><defs><style type="text/css"></style></defs><path d="M896 896H96a32 32 0 0 1-32-32V224a32 32 0 0 1 64 0v608h768a32 32 0 1 1 0 64zM512 752.16a32 32 0 0 1-32-32V350.624a32 32 0 0 1 64 0V720.16a32 32 0 0 1-32 32z m-192 0.416a32 32 0 0 1-32-32V512a32 32 0 0 1 64 0v208.576a32 32 0 0 1-32 32z m576 0.096a32 32 0 0 1-32-32V163.488a32 32 0 1 1 64 0v557.184a32 32 0 0 1-32 32z m-192 0.064a32 32 0 0 1-32-32V224a32 32 0 1 1 64 0v496.736a32 32 0 0 1-32 32z" p-id="20462"></path></svg>