<?xml version="1.0" standalone="no"?><!DOCTYPE svg PUBLIC "-//W3C//DTD SVG 1.1//EN" "http://www.w3.org/Graphics/SVG/1.1/DTD/svg11.dtd"><svg t="1557569337823" class="icon" style="" viewBox="0 0 1024 1024" version="1.1" xmlns="http://www.w3.org/2000/svg" p-id="12451" xmlns:xlink="http://www.w3.org/1999/xlink" width="200" height="200"><defs><style type="text/css"></style></defs><path d="M1014.49162 649.326049a32.036543 32.036543 0 0 0-45.275388 0L735.927297 882.633269l-105.380477-105.289049a32.036543 32.036543 0 0 0-45.293674 0l-191.999829 191.981543A32.036543 32.036543 0 0 0 415.891012 1024c8.191993 0 16.383985-3.108569 22.582837-9.398849l169.50842-169.38042 105.380477 105.380477a32.036543 32.036543 0 0 0 45.293674 0l255.9632-255.9632a32.127971 32.127971 0 0 0-0.091429-45.293673z" fill="#f4ea2a" p-id="12452"></path><path d="M731.831301 720.932842c10.898276 13.89713 30.994258 16.402271 44.891388 5.595424 13.89713-10.898276 16.402271-30.994258 5.61371-44.891389-40.301678-51.693668-91.995346-94.390773-149.394153-123.483318a447.816743 447.816743 0 0 0-48.383956-21.010267 292.443167 292.443167 0 0 0 58.989661-45.494817 286.299173 286.299173 0 0 0 84.388496-203.684389c0-76.89136-29.988545-149.284438-84.388496-203.574676A285.896888 285.896888 0 0 0 439.95499 0.000914c-76.89136 0-149.284438 29.988545-203.574675 84.388496a286.48203 286.48203 0 0 0-84.388496 203.574676c0 76.909646 29.988545 149.302724 84.388496 203.592961a285.97003 285.97003 0 0 0 59.099375 45.494816 437.430467 437.430467 0 0 0-167.076422 108.891332 455.73445 455.73445 0 0 0-93.988487 144.877585A468.113868 468.113868 0 0 0 0.001097 967.899479c0 8.50285 0.201143 17.188556 0.713142 25.709691 0.895999 17.097128 14.994272 30.299402 31.890258 30.299402h1.70057a31.926829 31.926829 0 0 0 30.189687-33.700542c-0.402285-7.405708-0.585142-14.811415-0.585142-22.308551 0-53.083381 9.983991-104.594192 29.695973-152.978149a390.820222 390.820222 0 0 1 80.877642-124.580461c71.003365-73.801077 165.30271-114.395326 265.471763-114.395326 113.70047 0 220.086661 52.79081 291.876311 144.987299zM281.600846 446.354801a222.591801 222.591801 0 0 1-65.590799-158.390715c0-59.794232 23.295979-116.077611 65.590799-158.37243A222.591801 222.591801 0 0 1 439.95499 64.000857c59.794232 0 116.114182 23.295979 158.390716 65.590799a222.591801 222.591801 0 0 1 65.590798 158.37243c0 59.794232-23.295979 116.114182-65.590798 158.390715a222.591801 222.591801 0 0 1-158.390716 65.590799c-59.794232 0-116.077611-23.295979-158.37243-65.590799z" fill="#f4ea2a" p-id="12453"></path></svg>