<?xml version="1.0" standalone="no"?><!DOCTYPE svg PUBLIC "-//W3C//DTD SVG 1.1//EN" "http://www.w3.org/Graphics/SVG/1.1/DTD/svg11.dtd"><svg t="1557475721689" class="icon" style="" viewBox="0 0 1024 1024" version="1.1" xmlns="http://www.w3.org/2000/svg" p-id="9754" xmlns:xlink="http://www.w3.org/1999/xlink" width="200" height="200"><defs><style type="text/css"></style></defs><path d="M508.3136 537.9072c0-0.7168 0-1.4336-0.1024-2.1504 0.1024-0.7168 0.1024-1.4336 0.1024-2.1504 0-11.264-9.216-20.48-20.48-20.48-104.448 0-189.44-84.48-189.44-188.416s84.992-188.416 189.44-188.416 189.44 84.48 189.44 188.416c0 37.0688-10.752 72.9088-31.232 103.6288-6.2464 9.4208-3.6864 22.1184 5.7344 28.3648 9.4208 6.2464 22.1184 3.6864 28.3648-5.7344 24.8832-37.4784 37.9904-81.2032 37.9904-126.2592 0-61.2352-23.9616-118.8864-67.4816-162.2016-43.52-43.3152-101.376-67.1744-162.9184-67.1744-61.5424 0-119.3984 23.8592-162.9184 67.1744s-67.4816 100.9664-67.4816 162.2016c0 61.2352 23.9616 118.8864 67.4816 162.2016 18.1248 18.0224 38.8096 32.768 61.1328 43.7248-17.3056 4.608-34.4064 10.4448-51.0976 17.5104-46.7968 19.6608-88.7808 47.8208-124.8256 83.7632-36.0448 35.84-64.4096 77.7216-84.1728 124.2112-20.48 48.2304-30.9248 99.4304-30.9248 152.1664 0 11.264 9.216 20.48 20.48 20.48s20.48-9.216 20.48-20.48c0-93.3888 36.5568-181.248 103.0144-247.296 66.4576-66.048 154.7264-102.5024 248.7296-102.5024 11.4688-0.1024 20.6848-9.3184 20.6848-20.5824zM927.8464 668.8768c-2.4576-7.3728-8.8064-12.8-16.4864-13.9264l-126.2592-18.3296L728.576 522.24c-3.4816-6.9632-10.5472-11.3664-18.3296-11.3664s-14.9504 4.4032-18.3296 11.3664l-56.4224 114.3808-126.2592 18.3296c-7.68 1.1264-14.1312 6.5536-16.4864 13.9264s-0.4096 15.5648 5.2224 20.992l91.3408 89.088-21.6064 125.7472c-1.3312 7.68 1.8432 15.4624 8.192 20.0704 6.3488 4.608 14.6432 5.2224 21.6064 1.536l112.9472-59.392 112.9472 59.392c2.9696 1.536 6.2464 2.3552 9.5232 2.3552 4.1984 0 8.4992-1.3312 12.0832-3.8912 6.3488-4.608 9.4208-12.3904 8.192-20.0704l-21.6064-125.7472 91.3408-89.088c5.3248-5.4272 7.3728-13.5168 4.9152-20.992z m-132.8128 88.2688c-4.8128 4.7104-7.0656 11.4688-5.9392 18.1248l16.384 95.4368-85.7088-45.056c-5.9392-3.1744-13.1072-3.1744-19.0464 0l-85.7088 45.056 16.384-95.4368c1.1264-6.656-1.024-13.4144-5.9392-18.1248l-69.3248-67.584 95.8464-13.9264c6.656-0.9216 12.3904-5.12 15.4624-11.1616l42.9056-86.8352 42.9056 86.8352c2.9696 6.0416 8.704 10.24 15.4624 11.1616l95.8464 13.9264-69.5296 67.584z" p-id="9755"></path></svg>