<?xml version="1.0" standalone="no"?><!DOCTYPE svg PUBLIC "-//W3C//DTD SVG 1.1//EN" "http://www.w3.org/Graphics/SVG/1.1/DTD/svg11.dtd"><svg t="1557572422649" class="icon" style="" viewBox="0 0 1219 1024" version="1.1" xmlns="http://www.w3.org/2000/svg" p-id="19674" xmlns:xlink="http://www.w3.org/1999/xlink" width="238.0859375" height="200"><defs><style type="text/css"></style></defs><path d="M232.18285719 962.14857125a33.64571437 33.64571437 0 0 1-33.7828575-33.46285687v-82.10285719c0-82.01142844 24.82285687-160.91428594 71.77142906-228.2971425a406.2628575 406.2628575 0 0 1 183.95428594-145.78285781l12.25142812-4.84571438-10.3771425-8.13714281a236.9371425 236.9371425 0 0 1-92.3428575-187.65714281c0-131.65714312 107.88571406-238.72000031 240.45714281-238.71999938 132.48 0 240.31999969 107.10857156 240.31999969 238.71999938a236.9371425 236.9371425 0 0 1-92.25142781 187.65714281l-10.42285781 8.13714281 12.25142906 4.84571438a406.2628575 406.2628575 0 0 1 183.99999938 145.78285781 397.48571437 397.48571437 0 0 1 71.72571468 228.2971425v82.10285719a33.64571437 33.64571437 0 0 1-33.73714312 33.46285687H232.18285719zM66.87999969 838.99428594a33.64571437 33.64571437 0 0 1-33.78285656-33.46285782v-63.54285656a318.85714312 318.85714312 0 0 1 173.62285687-284.57142844l8.8228575-4.57142906-6.67428562-7.31428594a196.48000031 196.48000031 0 0 1-51.79428657-132.57142781c0-107.88571406 87.45142875-195.84 195.61142907-197.71428562l-2.05714313 3.33714281a252.52571438 252.52571438 0 0 0-38.4 71.634285 130.19428594 130.19428594 0 0 0-87.63428531 122.74285781c0 51.10857188 30.35428594 97.82857125 77.25714281 118.99428563l0.22857094 0.09142875 0.22857187 0.09142781c13.98857156 5.25714281 22.99428562 17.37142875 22.99428563 30.9028575 0 13.80571406-9.69142875 26.37714281-24.22857188 31.31428594l-7.68 1.82857125A253.57714312 253.57714312 0 0 0 100.57142844 742.03428594v29.98857093h39.45142875a416.64 416.64 0 0 0-6.67428563 67.01714344H66.87999969z m1007.405715 0a416.4571425 416.4571425 0 0 0-6.67428656-66.97142907h39.45142875v-29.98857093a253.53142875 253.53142875 0 0 0-192.63999938-245.80571438l-7.81714312-1.87428562c-14.49142875-4.93714313-24.22857188-17.50857187-24.22857188-31.31428594 0-13.53142875 9.05142844-25.64571469 23.04-30.9028575l0.22857188-0.09142781 0.1828575-0.09142875a130.92571406 130.92571406 0 0 0 77.25714281-118.99428563c0-55.36000031-35.01714281-104.22857156-87.58857188-122.74285781a252.34285687 252.34285687 0 0 0-38.4-71.634285 321.82857188 321.82857188 0 0 0-2.05714312-3.33714281c108.16000031 1.82857125 195.56571469 89.82857156 195.56571469 197.71428562 0 48.91428562-18.37714312 96-51.74857125 132.57142782l-6.67428563 7.31428593 8.77714219 4.57142907a318.81142875 318.81142875 0 0 1 173.62285781 284.61714281v63.49714219a33.64571437 33.64571437 0 0 1-33.73714312 33.46285781H1074.28571469z" fill="#c75f4c" p-id="19675"></path></svg>