<?xml version="1.0" standalone="no"?><!DOCTYPE svg PUBLIC "-//W3C//DTD SVG 1.1//EN" "http://www.w3.org/Graphics/SVG/1.1/DTD/svg11.dtd"><svg t="1557375553938" class="icon" style="" viewBox="0 0 1024 1024" version="1.1" xmlns="http://www.w3.org/2000/svg" p-id="4715" xmlns:xlink="http://www.w3.org/1999/xlink" width="200" height="200"><defs><style type="text/css"></style></defs><path d="M480.711111 765.155556c41.244444-29.866667 68.266667-78.222222 68.266667-133.688889 0-91.022222-73.955556-166.4-166.4-166.4-91.022222 0-166.4 73.955556-166.4 166.4 0 55.466667 27.022222 103.822222 68.266666 133.688889-81.066667 36.977778-139.377778 119.466667-139.377777 214.755555 0 14.222222 11.377778 25.6 25.6 25.6s25.6-11.377778 25.6-25.6C199.111111 881.777778 277.333333 800.711111 374.044444 796.444444h17.066667c98.133333 4.266667 176.355556 85.333333 176.355556 183.466667 0 14.222222 11.377778 25.6 25.6 25.6s25.6-11.377778 25.6-25.6c0-95.288889-56.888889-177.777778-137.955556-214.755555z m-211.911111-133.688889c0-62.577778 51.2-113.777778 113.777778-113.777778s113.777778 51.2 113.777778 113.777778c0 59.733333-46.933333 109.511111-105.244445 113.777777h-17.066667c-58.311111-5.688889-105.244444-54.044444-105.244444-113.777777z" p-id="4716" fill="#dbdbdb"></path><path d="M769.422222 765.155556c41.244444-29.866667 66.844444-78.222222 66.844445-132.266667 0-91.022222-73.955556-166.4-166.4-166.4-48.355556 0-92.444444 19.911111-125.155556 56.888889-9.955556 9.955556-8.533333 27.022222 2.844445 36.977778s27.022222 8.533333 36.977777-2.844445c21.333333-24.177778 52.622222-38.4 85.333334-38.4 62.577778 0 113.777778 51.2 113.777777 113.777778 0 56.888889-41.244444 103.822222-95.288888 112.355555-5.688889 0-11.377778-1.422222-17.066667-1.422222-7.111111 0-12.8 0-19.911111 1.422222-24.177778-4.266667-45.511111-14.222222-62.577778-31.288888-9.955556-9.955556-25.6-9.955556-36.977778 0-9.955556 9.955556-9.955556 25.6 0 36.977777 5.688889 5.688889 12.8 11.377778 19.911111 15.644445-7.111111 2.844444-12.8 5.688889-19.911111 9.955555-11.377778 5.688889-15.644444 22.755556-8.533333 34.133334 7.111111 12.8 24.177778 17.066667 35.555555 9.955555 25.6-15.644444 54.044444-22.755556 83.911112-24.177778h15.644444c98.133333 4.266667 176.355556 85.333333 176.355556 183.466667 0 14.222222 11.377778 25.6 25.6 25.6s25.6-11.377778 27.022222-27.022222c0-93.866667-56.888889-176.355556-137.955556-213.333333z" p-id="4717" fill="#dbdbdb"></path><path d="M873.244444 1002.666667c-14.222222 0-25.6-11.377778-25.6-25.6s11.377778-25.6 25.6-25.6c38.4 0 69.688889-31.288889 69.688889-69.688889V155.022222c0-36.977778-27.022222-75.377778-66.844444-75.377778H152.177778c-38.4 0-73.955556 36.977778-73.955556 75.377778v723.911111c0 38.4 32.711111 69.688889 72.533334 69.688889 14.222222 0 25.6 11.377778 25.6 25.6s-11.377778 25.6-25.6 25.6c-68.266667 0-125.155556-54.044444-125.155556-122.311111V155.022222c0-68.266667 58.311111-128 126.577778-128h723.911111c65.422222 0 119.466667 58.311111 119.466667 128v723.911111c0 68.266667-55.466667 123.733333-122.311112 123.733334z" p-id="4718" fill="#dbdbdb"></path><path d="M243.2 472.177778H78.222222c-14.222222 0-25.6-11.377778-25.6-25.6s11.377778-25.6 25.6-25.6h153.6l130.844445-139.377778c4.266667-4.266667 11.377778-8.533333 18.488889-8.533333s14.222222 2.844444 18.488888 7.111111l120.888889 118.044444L780.8 133.688889c4.266667-4.266667 12.8-8.533333 19.911111-7.111111 7.111111 0 14.222222 2.844444 18.488889 8.533333l129.422222 146.488889c9.955556 9.955556 8.533333 28.444444-2.844444 36.977778-9.955556 9.955556-28.444444 8.533333-36.977778-2.844445l-110.933333-125.155555L540.444444 452.266667c-9.955556 9.955556-27.022222 9.955556-36.977777 0L384 335.644444l-120.888889 128c-5.688889 5.688889-12.8 8.533333-19.911111 8.533334z m0 0" p-id="4719" fill="#dbdbdb"></path></svg>