<?xml version="1.0" standalone="no"?><!DOCTYPE svg PUBLIC "-//W3C//DTD SVG 1.1//EN" "http://www.w3.org/Graphics/SVG/1.1/DTD/svg11.dtd"><svg t="1557572385144" class="icon" style="" viewBox="0 0 1024 1024" version="1.1" xmlns="http://www.w3.org/2000/svg" p-id="18874" xmlns:xlink="http://www.w3.org/1999/xlink" width="200" height="200"><defs><style type="text/css"></style></defs><path d="M384.446686 131.1268c51.106029 0 99.152772 19.902303 135.291217 56.038755C555.874354 223.303003 575.776657 271.350742 575.776657 322.456772s-19.902303 99.152772-56.038755 135.291217C483.599457 493.88444 435.552715 513.786743 384.446686 513.786743s-99.152772-19.902303-135.291217-56.038755C213.019017 421.609543 193.116714 373.562801 193.116714 322.456772s19.902303-99.152772 56.038755-135.291217C285.293914 151.029103 333.340657 131.1268 384.446686 131.1268M384.446686 67.350143c-140.891604 0-255.106629 114.215024-255.106629 255.106629s114.215024 255.106629 255.106629 255.106629 255.106629-114.215024 255.106629-255.106629S525.33829 67.350143 384.446686 67.350143L384.446686 67.350143z" p-id="18875" fill="#5df231"></path><path d="M384.446686 577.5634c43.078142 0 84.831923 8.422505 124.104392 25.033334 37.965048 16.057766 72.073602 39.059216 101.379972 68.36459 29.305374 29.30637 52.306824 63.41592 68.36459 101.379972C694.907467 811.614763 703.329971 853.368543 703.329971 896.446686c0 16.894835-6.672633 32.870888-18.788205 44.988453-12.116568 12.115572-28.092621 18.788205-44.988453 18.788205L129.340057 960.223343c-16.893839 0-32.870888-6.672633-44.987456-18.788205C72.235036 929.317573 65.5634 913.341521 65.5634 896.446686c0-43.078142 8.422505-84.831923 25.033334-124.104392 16.05677-37.965048 39.05822-72.073602 68.36459-101.379972 29.30637-29.305374 63.41592-52.306824 101.379972-68.36459C299.614763 585.985905 341.368543 577.5634 384.446686 577.5634M384.446686 513.786743c-211.336908 0-382.659943 171.323035-382.659943 382.659943 0 70.154323 57.398991 127.553314 127.553314 127.553314l510.213257 0c70.154323 0 127.553314-57.398991 127.553314-127.553314C767.106629 685.109778 595.783594 513.786743 384.446686 513.786743L384.446686 513.786743z" p-id="18876" fill="#5df231"></path><path d="M775.203274 471.177957C846.961979 426.033052 894.659943 346.145814 894.659943 255.106629 894.659943 114.215024 780.444918 0 639.553314 0c-58.646622 0-112.657479 19.803649-155.745586 53.069154 22.798162 8.394602 44.47226 19.698018 64.559914 33.733866C576.036746 71.763687 607.180682 63.776657 639.553314 63.776657c51.106029 0 99.152772 19.902303 135.291217 56.038755C810.980983 155.953857 830.883286 204.000599 830.883286 255.106629s-19.902303 99.152772-56.038755 135.291217c-35.216673 35.215676-81.743737 55.005374-131.389879 55.991919-11.433959 23.84948-26.244094 46.160349-44.174304 66.350643C612.549879 511.072249 625.983834 510.213257 639.553314 510.213257c43.078142 0 84.831923 8.422505 124.104392 25.033334 37.965048 16.057766 72.073602 39.059216 101.379972 68.36459 29.305374 29.30637 52.306824 63.41592 68.36459 101.379972C950.014095 744.26462 958.4366 786.0184 958.4366 829.096543c0 16.894835-6.672633 32.870888-18.788205 44.988453C927.530831 886.200567 911.554778 892.8732 894.659943 892.8732l-95.685912 0c0.009965 1.19083 0.020927 2.38166 0.020927 3.573486 0 21.291438-4.20627 41.617258-11.812633 60.203171L894.659943 956.649857c70.154323 0 127.553314-57.398991 127.553314-127.553314C1022.213257 665.525361 919.582665 525.927228 775.203274 471.177957z" p-id="18877" fill="#5df231"></path></svg>