<?xml version="1.0" standalone="no"?><!DOCTYPE svg PUBLIC "-//W3C//DTD SVG 1.1//EN" "http://www.w3.org/Graphics/SVG/1.1/DTD/svg11.dtd"><svg t="1557572236078" class="icon" style="" viewBox="0 0 1024 1024" version="1.1" xmlns="http://www.w3.org/2000/svg" p-id="15916" xmlns:xlink="http://www.w3.org/1999/xlink" width="200" height="200"><defs><style type="text/css"></style></defs><path d="M158.936 211.374v-97.521c0-23.105 18.604-41.769 41.648-41.769 23.061 0 41.664 18.664 41.664 41.769v97.521c0 23.135-18.604 41.829-41.664 41.829-23.043 0-41.648-18.694-41.648-41.829z m444.425 41.829c23.044 0 41.665-18.693 41.665-41.829v-97.521c0-23.105-18.621-41.769-41.665-41.769-23.062 0-41.681 18.664-41.681 41.769v97.521c0.001 23.135 18.62 41.829 41.681 41.829z m249.983 459.759H811.68V615.44c0-15.394-12.438-27.876-27.786-27.876-15.318 0-27.771 12.482-27.771 27.876v125.366c0 15.393 12.452 27.876 27.771 27.876h69.45c15.333 0 27.786-12.483 27.786-27.876 0-15.362-12.453-27.844-27.786-27.844zM1020 733.847c0 130.825-105.683 236.869-236.106 236.869-92.898 0-173.181-54.072-211.649-132.389H75.592c-38.333 0-69.434-31.207-69.434-69.645v-515.48c0-38.468 31.102-69.674 69.434-69.674h55.557v27.846c0 38.468 31.103 69.675 69.435 69.675s69.45-31.207 69.45-69.675v-27.846h263.877v27.846c0 38.468 31.114 69.675 69.449 69.675 38.333 0 69.434-31.207 69.434-69.675v-27.846h55.557c38.334 0 69.45 31.206 69.45 69.674v244.493C921.683 504.957 1020 607.759 1020 733.847zM521.144 381.359H295.451v62.565h156.663c-31.387 38.167-56.802 80.238-76.246 125.965-19.308 45.82-30.832 93.471-34.717 143.072h71.79c0.285-22.146 2.926-45.972 7.787-71.477 4.861-25.625 11.808-50.861 20.824-75.797 9.033-24.935 20.15-48.489 33.473-70.634 13.472-22.144 28.746-40.688 46.12-55.872v-57.822z m443.314 352.488c0-99.892-80.974-181.12-180.564-181.12-99.576 0-180.532 81.229-180.532 181.12 0 99.921 80.956 181.117 180.532 181.117 99.59 0 180.564-81.196 180.564-181.117z m0 0" p-id="15917" fill="#13227a"></path></svg>